<svg width="80" height="80" viewBox="0 0 80 80" fill="none" xmlns="http://www.w3.org/2000/svg">
<path d="M17.3911 35.7933C17.9697 28.1162 18.1886 20.4517 19.0269 12.7891C17.327 15.2298 15.4764 17.5679 13.8157 20.0355M10.666 38.9092C15.1702 36.9768 19.5563 34.7322 24.0077 32.6773M41.2131 11.1706C43.5519 12.0811 44.3123 15.353 44.2345 17.5274C44.0525 22.6274 40.5087 30.6305 34.1113 29.342C31.4128 28.7983 30.3865 25.2048 30.5008 22.8836C30.7305 18.2084 33.5346 10.6256 39.3125 10.6668M20.7759 56.0044C26.7843 51.1521 32.032 45.2887 37.6033 39.9754C44.79 33.1208 52.3363 26.662 59.6177 19.9104M42.1087 66.4848C42.0674 61.9373 42.9675 57.418 43.0179 52.8633C43.0305 51.7365 43.4291 48.2034 42.6429 47.3121C42.3954 47.0313 42.3085 47.98 42.1428 48.3148C41.8578 48.8919 41.5901 49.4764 41.2952 50.0488C40.4173 51.7527 39.3432 53.3507 38.2989 54.9571M32.9366 69.3333C38.4973 67.8423 43.8787 66.0061 49.4899 64.6612M67.5895 43.0563C70.9055 47.2684 68.9829 54.7447 66.0443 58.5508C64.4985 60.5531 61.5651 62.8297 58.9923 61.2145C51.778 56.6859 58.325 41.5528 66.29 42.2986" stroke="#0E243C" stroke-width="2" stroke-miterlimit="1.5" stroke-linecap="round" stroke-linejoin="round"/>
</svg>
