<svg width="80" height="80" viewBox="0 0 80 80" fill="none" xmlns="http://www.w3.org/2000/svg">
<path d="M36.6504 58.8246C33.3852 62.9269 28.8182 65.857 23.4322 66.5351C10.0536 68.2194 10.6066 53.175 10.6922 53.2118M36.6504 58.8246C40.234 54.3222 42.2495 48.4079 42.0583 42.5097C41.9019 37.6835 37.5117 29.4222 32.2453 33.9164C27.5182 37.9504 27.2934 46.2806 29.9154 51.7C31.7742 55.5422 34.1113 57.8216 36.6504 58.8246ZM36.6504 58.8246C41.6769 60.8103 47.4954 57.7939 51.9636 51.9974C59.4145 42.3314 60.7745 30.0779 59.3529 18.1224M69.3327 26.0443C68.1292 25.7848 67.1567 25.0134 66.1499 24.2978C62.8439 21.9484 59.9744 18.2696 59.0451 14C58.6696 18.7351 56.7134 24.7452 52.5935 26.9581" stroke="#0E243C" stroke-width="2" stroke-miterlimit="1.5" stroke-linecap="round" stroke-linejoin="round"/>
</svg>
